<?xml version="1.0" encoding="UTF-8"?>
<!DOCTYPE svg PUBLIC "-//W3C//DTD SVG 1.1//EN" "http://www.w3.org/Graphics/SVG/1.1/DTD/svg11.dtd">
<!-- Creator: CorelDRAW X7 -->
<svg xmlns="http://www.w3.org/2000/svg" xml:space="preserve" width="9.2288mm" height="9.2288mm" version="1.1" style="shape-rendering:geometricPrecision; text-rendering:geometricPrecision; image-rendering:optimizeQuality; fill-rule:evenodd; clip-rule:evenodd"
viewBox="0 0 831 831"
 xmlns:xlink="http://www.w3.org/1999/xlink">
 <defs>
  <style type="text/css">
   <![CDATA[
    .fil0 {fill:#4CAF50}
    .fil3 {fill:#4CAF50}
    .fil2 {fill:white}
    .fil1 {fill:white;fill-rule:nonzero}
   ]]>
  </style>
 </defs>
 <g id="Layer_x0020_1">
  <metadata id="CorelCorpID_0Corel-Layer"/>
  <g id="_719531688">
   <circle class="fil0" cx="415" cy="415" r="415"/>
   <g>
    <path class="fil1" d="M208 182l415 0c15,0 29,6 38,16 1,1 1,1 1,1 9,10 15,23 15,37l0 250c0,15 -6,28 -16,38 -9,10 -23,16 -38,16l-415 0c-15,0 -29,-6 -38,-16 -10,-10 -16,-23 -16,-38l0 -250c0,-14 6,-28 16,-38l0 0 0 0c9,-10 23,-16 38,-16zm415 25l-415 0c-8,0 -16,4 -21,9l0 0c-5,5 -8,12 -8,20l0 250c0,8 3,15 8,20 5,6 13,9 21,9l415 0c8,0 15,-3 21,-9 5,-5 8,-12 8,-20l0 -250c0,-7 -3,-14 -8,-20 0,0 0,0 0,0 -6,-5 -13,-9 -21,-9z"/>
    <path class="fil2" d="M243 565l332 0 0 42c0,23 -18,42 -41,42l-250 0c-22,0 -41,-19 -41,-42l0 -42z"/>
    <polygon class="fil2" points="366,311 407,322 449,333 418,364 388,394 377,353 "/>
    <path class="fil1" d="M407 370c-5,-5 -5,-13 0,-17 5,-5 13,-5 18,0l42 42c5,5 5,12 0,17 -5,5 -13,5 -18,0l-42 -42z"/>
    <path class="fil3" d="M409 586c12,0 21,10 21,21 0,11 -9,21 -21,21 -11,0 -21,-10 -21,-21 0,-11 10,-21 21,-21z"/>
   </g>
  </g>
 </g>
</svg>
